<svg xmlns="http://www.w3.org/2000/svg" viewBox="0 0 1280 640" width="1280" height="640" role="img" aria-label="DepPrism social preview">
  <defs>
    <linearGradient id="brand" x1="92" y1="335" x2="690" y2="235" gradientUnits="userSpaceOnUse"><stop stop-color="#60a5fa"/><stop offset="0.5" stop-color="#8b5cf6"/><stop offset="1" stop-color="#f97316"/></linearGradient><linearGradient id="markGrad" x1="15" y1="50" x2="49" y2="14" gradientUnits="userSpaceOnUse"><stop stop-color="#60a5fa"/><stop offset=".45" stop-color="#8b5cf6"/><stop offset="1" stop-color="#f97316"/></linearGradient><radialGradient id="v"><stop stop-color="#8b5cf6" stop-opacity=".38"/><stop offset="1" stop-color="#8b5cf6" stop-opacity="0"/></radialGradient><radialGradient id="b"><stop stop-color="#60a5fa" stop-opacity=".28"/><stop offset="1" stop-color="#60a5fa" stop-opacity="0"/></radialGradient><radialGradient id="o"><stop stop-color="#f97316" stop-opacity=".22"/><stop offset="1" stop-color="#f97316" stop-opacity="0"/></radialGradient><pattern id="dots" width="28" height="28" patternUnits="userSpaceOnUse"><circle cx="1.5" cy="1.5" r="1.5" fill="#94a3b8" fill-opacity=".07"/></pattern>
  </defs>
  <rect width="1280" height="640" fill="#060509"/><rect width="1280" height="640" fill="url(#dots)"/><ellipse cx="1030" cy="205" rx="500" ry="390" fill="url(#v)"/><ellipse cx="180" cy="590" rx="500" ry="330" fill="url(#b)"/><ellipse cx="1230" cy="600" rx="360" ry="260" fill="url(#o)"/>
  <g transform="translate(92,72) scale(.62)"><path d="M15 50 L15 27 C15 20.2 17.4 19.11 22.5 23.6 L41.5 40.4 C46.6 44.89 49 43.8 49 37 L49 14" fill="none" stroke="url(#markGrad)" stroke-width="7" stroke-linecap="round" stroke-linejoin="round"/></g><text x="142" y="108" font-family="'Plus Jakarta Sans',ui-sans-serif,system-ui,sans-serif" font-size="20" font-weight="700" letter-spacing="5" fill="#f8fafc">NINTECH</text><text x="330" y="108" font-family="'JetBrains Mono',ui-monospace,monospace" font-size="14" letter-spacing="1.8" fill="#64748b">· OPEN SOURCE</text>
  <text x="88" y="326" font-family="'Plus Jakarta Sans',ui-sans-serif,system-ui,sans-serif" font-size="104" font-weight="800" letter-spacing="-3" fill="url(#brand)">depprism</text><text x="94" y="386" font-family="'Plus Jakarta Sans',ui-sans-serif,system-ui,sans-serif" font-size="30" font-weight="500" fill="#e2e8f0">Turn lockfile noise into dependency evidence</text><text x="94" y="431" font-family="'Plus Jakarta Sans',ui-sans-serif,system-ui,sans-serif" font-size="20" fill="#8b93a7">Offline semantic review across 7 ecosystems.</text>
  <g transform="translate(720,135)" font-family="'JetBrains Mono',ui-monospace,monospace"><g font-size="14"><rect x="0" y="0" width="205" height="42" rx="10" fill="#fff" fill-opacity=".04" stroke="#60a5fa" stroke-opacity=".4"/><text x="18" y="27" fill="#cbd5e1">alpha@1.0.0</text><rect x="0" y="57" width="205" height="42" rx="10" fill="#fff" fill-opacity=".04" stroke="#8b5cf6" stroke-opacity=".4"/><text x="18" y="84" fill="#cbd5e1">child@3.0.0</text><rect x="0" y="114" width="205" height="42" rx="10" fill="#fff" fill-opacity=".04" stroke="#f97316" stroke-opacity=".45"/><text x="18" y="141" fill="#cbd5e1">sha512:after</text></g><path d="M244 12L345 100 244 188Z" fill="#8b5cf6" fill-opacity=".09" stroke="#c4b5fd" stroke-opacity=".7" stroke-width="2.5"/><g fill="none" stroke-width="4" stroke-linecap="round"><path d="M313 80C380 30 428 12 505 8" stroke="#60a5fa"/><path d="M322 94C395 72 440 70 520 70" stroke="#8b5cf6"/><path d="M322 106C395 130 440 133 520 133" stroke="#f97316"/><path d="M313 120C380 172 428 191 505 195" stroke="#34d399"/></g><g font-size="12" letter-spacing="1.3"><text x="398" y="1" fill="#7cb8ff">IDENTITY</text><text x="442" y="61" fill="#c4b5fd">PATH</text><text x="410" y="158" fill="#fdba74">INTEGRITY</text><text x="399" y="219" fill="#6ee7b7">BEHAVIOR</text></g></g>
  <g font-family="'JetBrains Mono',ui-monospace,monospace" font-size="14" letter-spacing="1"><rect x="92" y="502" width="116" height="38" rx="19" fill="#fff" fill-opacity=".04" stroke="#60a5fa" stroke-opacity=".38"/><text x="150" y="527" fill="#7cb8ff" text-anchor="middle">OFFLINE</text><rect x="220" y="502" width="164" height="38" rx="19" fill="#fff" fill-opacity=".04" stroke="#8b5cf6" stroke-opacity=".38"/><text x="302" y="527" fill="#c4b5fd" text-anchor="middle">DETERMINISTIC</text><rect x="396" y="502" width="154" height="38" rx="19" fill="#fff" fill-opacity=".04" stroke="#f97316" stroke-opacity=".42"/><text x="473" y="527" fill="#fdba74" text-anchor="middle">BASE-TRUSTED</text></g>
  <rect x="0" y="635" width="1280" height="5" fill="url(#brand)"/>
</svg>
